<?xml version="1.0" encoding="UTF-8"?>
<svg id="Layer_1" data-name="Layer 1" xmlns="http://www.w3.org/2000/svg" viewBox="0 0 302.28 288.83">
  <defs>
    <style>
      .cls-1 {
        fill: #38393a;
      }

      .cls-2 {
        fill: #393a3b;
      }
    </style>
  </defs>
  <path class="cls-2" d="M106.53,196.47c.57,4.25,2.64,20.14,7.14,20.99,54.39.59,108.98-1.12,163.32.93,7.07,1.59,6.44,15.24-1.32,15.61-52.25-.56-104.55.72-156.8-.06-1.65-.02-3.2.68-4.47.64-6.96-.23-15.01-5.45-18.24-11.61L47.33,18.48c-.78-1.06-2.21-1.14-3.41-1.26-10.94-1.17-29.83,2.22-39.42-1.1C-1.91,13.91-1.84,1.61,7.11.67,14.77-.13,41.96-.39,48.98.89c5.21.95,11.41,7.26,13.59,11.91l39.92,167.21,159.28-1.18c1.53-.95,3.01-8.55,3.53-10.72,6.4-26.75,9.91-54.31,15.98-81.14H93.41c-.22,0-3.36-1.85-3.73-2.27-2.9-3.33-1.98-8.7,2.05-10.66l192.52-.61c.32-5.81,5.35-17.75.42-22.47-1.08-1.04-4.36-1.16-6.16-2.09-9.52-4.91-1.9-21.05,12.48-13.23,6.18,3.36,10.6,11.06,11.29,17.96-4.23,43.07-16.39,85.26-23.46,128.02-1.69,5.58-5.08,9.6-10.25,12.25-.84.43-6.06,2.6-6.4,2.6H106.53Z"/>
  <path class="cls-1" d="M244.37,239.43c26.18-2.79,38.15,35.33,13.44,46.43-37.22,16.72-49.33-42.61-13.44-46.43ZM245.08,255.86c-13.07,2.93-3.32,23.7,7.32,14.09,6.29-5.68-.43-15.64-7.32-14.09Z"/>
  <path class="cls-1" d="M126.65,239.39c31.69-1.2,33.69,48.33,2.01,49.37-32.91,1.09-33.9-48.17-2.01-49.37ZM133.28,258.22c-8.68-8.67-20.98,7.38-9.54,12.91,8.82,4.27,15.93-6.53,9.54-12.91Z"/>
</svg>