<?xml version="1.0" encoding="UTF-8"?>
<svg id="Layer_1" data-name="Layer 1" xmlns="http://www.w3.org/2000/svg" viewBox="0 0 363.06 363.06">
  <defs>
    <style>
      .cls-1 {
        fill: #38393a;
      }

      .cls-2 {
        fill: #3a3b3c;
      }

      .cls-3 {
        fill: #393a3b;
      }
    </style>
  </defs>
  <path class="cls-1" d="M26.88.25l308.05-.25c14.62.57,26.56,11.22,28.12,25.88l-.66,315.89c-2.84,11.23-12.88,20.05-24.46,21.29H25.87c-13.98-1.04-25.33-13.43-25.87-27.37L.04,26.67C1.37,12.21,12.41,1.21,26.88.25ZM277.53,14.28H28.15c-1.99,0-7.79,2.62-9.41,4.09-1.47,1.33-4.46,6.49-4.46,8.29v73.12h263.25V14.28ZM348.78,99.78V25.9c0-1.94-3.85-7.37-5.62-8.63-1.19-.84-6.42-3-7.5-3h-42.75l-1.12,1.12v84.38h57ZM348.78,114.03H14.28v222.38c0,5.78,8.52,13.39,14.59,12.41h306.81c4.72.83,13.09-6.78,13.09-10.91V114.03Z"/>
  <path class="cls-1" d="M267.03,206.28l.04-64.83c1.55-7.72,13.03-8.01,14.16,0l.05,64.82h11.62c16.5,0,26.18,20.93,16.45,34.45-1.72,2.4-9.22,8.3-11.95,8.3h-16.12v73.88c0,1.71-5,4.92-7.13,4.92-2.58,0-7.12-3.26-7.12-5.67v-73.12h-16.12c-1.06,0-6.16-2.99-7.37-3.88-16.36-11.93-7.5-38.87,12.62-38.87h10.88ZM254.06,221.44c-6.65,1.94-6.05,12.25.63,13.3,5.94.93,32.99.94,38.91,0,7.4-1.17,7.15-11.92,0-13.41l-39.55.12Z"/>
  <path class="cls-1" d="M189.03,156.78c8.91,0,16.18-1.27,23.61,4.52,10.99,8.57,10.85,25.7-.42,34.04-1.47,1.09-7.17,4.19-8.56,4.19h-14.62l-.69,123.43c-2.68,5.66-9.73,6.54-12.99.87l-.57-124.3h-15.38c-1.42,0-8.75-4.33-10.14-5.61-12.24-11.2-7.03-32.72,9.15-36.63,5.17-1.25,11.08-.15,16.37-.51.94-6.65-3.54-20.9,6.47-21.51,3.05-.19,7.77,3.14,7.77,6.13v15.38ZM162.58,171.21c-7.99,1.44-7.61,12.36,0,13.9,5.21,1.05,31.59.9,37.26.1,8.66-1.22,8.66-12.56.64-14-5.41-.98-32.48-.97-37.9,0Z"/>
  <path class="cls-3" d="M96.03,263.28h13.88c.93,0,6.44,2.2,7.65,2.85,14.59,7.8,14.17,30.42-.77,37.79-6.71,3.31-12.95,1.53-20.06,2.44-3.03,2.11,4.14,21.43-7.83,21.46-9.64.03-6.83-15.75-7.12-21.8-7.49-.3-14.27,1.41-21.03-2.6-13.29-7.87-14.67-27.51-1.73-36.28,1.7-1.15,7.83-3.87,9.63-3.87h13.12l.04-121.83c1.31-5.4,7.28-8.02,11.94-4.53.58.43,2.26,2.54,2.26,2.98v123.38ZM66.29,290.01c.99,1,2.42,1.62,3.83,1.8,11.67,1.43,26.24-1.09,38.24-.08,8.42-2.47,7.33-12.95-1.52-14.14-6.79-.91-29.13-.95-35.87,0-6.2.87-8.93,8.15-4.68,12.42Z"/>
  <path class="cls-1" d="M140.12,28.75c37.78-3.06,41.46,54.03,5.02,56.76-37.97,2.85-42.3-53.74-5.02-56.76ZM141.62,42.93c-19.19,1.5-16.26,29.71,2.02,28.37,18.43-1.36,16.34-29.8-2.02-28.37Z"/>
  <path class="cls-1" d="M61.36,28.74c32.42-3.45,44.27,43.92,12.37,55.12-40.04,14.05-53.89-50.7-12.37-55.12ZM54.29,46.79c-13.87,12.99,7.47,34.27,20.4,20.02,12.36-13.61-7.52-32.08-20.4-20.02Z"/>
  <path class="cls-2" d="M320.01,49.77c9.67-.59,10.41,14.36.52,14.51-9.18.14-9.67-13.96-.52-14.51Z"/>
</svg>