<?xml version="1.0" encoding="UTF-8"?>
<svg id="Layer_1" data-name="Layer 1" xmlns="http://www.w3.org/2000/svg" viewBox="0 0 353.84 225.22">
  <defs>
    <style>
      .cls-1 {
        fill: #38393a;
      }

      .cls-2 {
        fill: #3a3b3c;
      }

      .cls-3 {
        fill: #3c3d3e;
      }
    </style>
  </defs>
  <path class="cls-2" d="M236.14,47.19h44.62c9.86,0,22.18,11.18,28.51,17.99,9.77,10.49,35.73,39.17,40.48,51.02s4.55,43.35,3.41,56.64c-1.42,16.51-17.06,19.21-30.83,18.67-4.38,23.1-21.58,36.08-45.24,33.34-10.98-1.27-23.07-11.27-27.6-21.15-1.85-4.03-2.28-8.56-4.1-12.55h-65.07c-7.66,43.66-68.07,44.2-76.13.36-15.59-1.37-32.33,3.49-43.11-10.89-6-8-5.88-23.56-4.98-33.35.77-8.36,9.76-8.75,11.11-1.29,1.62,9.01-3.11,23.44,4.42,30.08s23.47,2.73,33.26,3.86c7.29-43.09,66.85-42.22,75.46.05h65.83c9.55-40.97,66.14-41.4,75.56-.14,9.06,0,19.4,2.64,20.82-9.36.99-8.35.8-25.88.12-34.45-.11-1.44-.44-2.71-.79-4.09h-42.38c-9.13,0-18.23-9.54-19.12-18.38-.72-7.19-1.02-28.42.04-35.2s10.16-6.37,11.16.76c1.49,10.66-1.14,24.07.21,35.04.51,2.19,5.02,6.53,6.97,6.53h40.88c-1.64-3.57-3.67-6.96-6.01-10.11-11.5-15.43-26.84-29.91-38.98-45.02-5.01-4.3-14.06-7.87-20.63-7.87h-37.88v100.88c0,.47-2.32,3.42-3.01,3.74-3.83,1.75-7.44-.58-8.2-4.53l-.04-134.21c-.69-5.45-4.28-10.51-9.59-12.16-44.9-2.1-90.28-.6-135.34-.77-18.57,3.12-11,23.07-12.55,36.2-.8,6.75-8.81,7.57-10.88,2.59-.87-2.1-.74-23.78-.38-27.35,1.07-10.75,9.42-19.91,19.93-22.07h140.12c9.42,1.29,19.94,13.39,19.94,22.81v24.38ZM137.71,159.13c-19.89,2.72-29.12,27.44-17.39,43.26,12.85,17.34,41.11,13.02,47.78-7.62,6.36-19.68-10.08-38.42-30.39-35.64ZM283.26,159.86c-36.78,1.11-33.48,58.03,3.5,54.56,34.22-3.21,31.25-55.61-3.5-54.56Z"/>
  <path class="cls-3" d="M4.18,62.35l59.82-.15c6.33,2.49,5.61,10.42-1.47,11.25-17.86-1.49-38.78,1.94-56.27-.02-8.29-.93-7.69-9.85-2.09-11.09Z"/>
  <path class="cls-3" d="M26.7,90.87c5.39-.96,31.05-1.01,36.53-.14,6.51,1.03,6.8,10.21.75,11.16-11.2,1.76-26.52-1.2-38.19.03-6.05-2.22-5.55-9.9.91-11.05Z"/>
  <path class="cls-1" d="M46.16,120.08c1.78-.53,17.2-.41,19.02.19,4.33,1.4,4.22,9.26-1.22,10.12-2.62.41-15.43.43-17.62-.28-4.21-1.36-3.69-8.97-.19-10.02Z"/>
</svg>