<?xml version="1.0" encoding="UTF-8"?>
<svg id="Layer_1" data-name="Layer 1" xmlns="http://www.w3.org/2000/svg" viewBox="0 0 283.4 325.64">
  <defs>
    <style>
      .cls-1 {
        fill: #38393a;
      }

      .cls-2 {
        fill: #3a3b3c;
      }

      .cls-3 {
        fill: #393a3b;
      }
    </style>
  </defs>
  <path class="cls-2" d="M282.4,80.5c.9,1.09.93,2.55,1,3.88l-.03,157.55c-.1,1.12-.22,2.25-.97,3.15-1.2,1.45-11.67,7.04-14.28,8.59-41.03,24.44-83.09,47.28-124.23,71.52-4.48,1.74-6.86-2.01-10.29-4-43.09-24.95-86.32-49.68-129.48-74.52l-2.93-3.07c-1.68-51.42.27-103.19-.54-154.71-.06-4.07-2.43-6.4,2.28-9.66L141.99,0l5.38,2.17,135.03,78.34ZM141.41,12.16L17.13,84.42l27.22,16.31,2.77.25L170.39,29.94l.47-1.76c-5.05-1.66-25.94-16.59-29.45-16.02ZM219.61,56.31l-37.5-20.7L57.62,108.78l34.71,19.68,3.74.45,123.08-71.06.47-1.55ZM266.87,83.3c-11.09-4.5-20.71-12.51-31.49-17.65-1.74-.83-3.45-2.25-5.44-1.73l-121.85,70.22-1.72,2.02c10.04,5.31,20.13,12.87,30.25,17.76,1.52.73,3.5,2.25,5.2,2l125.05-72.62ZM146.87,310.54l126-72.38V93.04c-41.98,24.36-84.47,48.16-126,73.12v144.38ZM11.87,94.54v143.62l123.75,71.62v-143.62l-39-22.88v82.12c0,2.13-5.36,4.61-7.52,3.02-12.4-7.4-25.45-13.92-37.71-21.55-3.63-2.26-9.08-4.17-8.81-9.19l.05-85.38-30.76-17.78ZM86.12,213.79v-76.12l-33-19.12v76.12l33,19.12Z"/>
  <path class="cls-1" d="M196.91,209.47c5.82-1.19,12.01,2.08,13.38,8.03,1.2,5.17.94,27.5.36,33.46-.26,2.69-.88,4.3-2.64,6.36-2.39,2.8-26.46,16.73-30.87,18.63-7.12,3.07-15.45.38-16.73-7.83-.97-6.21-.73-25.63-.09-32.24.41-4.18,2.45-6.81,5.78-9.22,3.55-2.56,27.75-16.58,30.8-17.2ZM200.12,219.79l-29.25,16.88v29.62l29.25-16.12v-30.38Z"/>
  <path class="cls-3" d="M258.39,148.76c3.26,4.04-.14,7.25-3.3,9.38-10.84,7.32-24.2,13.18-35.46,20.06-4.91,1.69-8.04-2.86-6.62-7.39,1.03-3.3,34.12-19.41,38.82-23.43,1.88-.89,5.3-.18,6.56,1.37Z"/>
  <path class="cls-3" d="M253.85,167.51c5.27-.31,7.78,5.95,3.2,9.84-9.5,8.05-26.65,13.84-37.06,21.5-6.67,2.35-10.23-6.6-4.08-10.13l37.94-21.21Z"/>
  <path class="cls-3" d="M253.85,126.26c5.37-.32,7.94,7,3.2,9.84l-37.06,21.5c-6.69,2.33-10.22-6.6-4.08-10.13l37.94-21.21Z"/>
</svg>